<?xml version="1.0" encoding="UTF-8"?>
<svg id="Layer_1" data-name="Layer 1" xmlns="http://www.w3.org/2000/svg" version="1.1" xmlns:xlink="http://www.w3.org/1999/xlink" viewBox="0 0 698 640">
  <defs>
    <style>
      .cls-1, .cls-2, .cls-3, .cls-4, .cls-5, .cls-6, .cls-7, .cls-8, .cls-9 {
        stroke-width: 0px;
      }

      .cls-1, .cls-4 {
        fill: #8791ff;
      }

      .cls-10 {
        stroke: #8791ff;
      }

      .cls-10, .cls-2, .cls-11 {
        fill: none;
      }

      .cls-10, .cls-11, .cls-12, .cls-13, .cls-14, .cls-15 {
        stroke-linecap: round;
        stroke-linejoin: round;
        stroke-width: 1.5px;
      }

      .cls-10, .cls-4 {
        isolation: isolate;
      }

      .cls-10, .cls-4, .cls-16 {
        opacity: .4;
      }

      .cls-3 {
        fill: #a3a1fb;
      }

      .cls-17 {
        clip-path: url(#clippath);
      }

      .cls-11, .cls-12, .cls-13, .cls-14, .cls-15 {
        stroke: #011635;
      }

      .cls-12, .cls-8 {
        fill: #011635;
      }

      .cls-5 {
        fill: #f9cad2;
      }

      .cls-6, .cls-13 {
        fill: #fff;
      }

      .cls-7 {
        fill: #f99aaa;
      }

      .cls-14 {
        fill: #f4dc90;
      }

      .cls-9 {
        fill: #57f9cc;
      }

      .cls-15 {
        fill: #d0d0d6;
      }
    </style>
    <clipPath id="clippath">
      <rect class="cls-2" x="48.9" y="56.1" width="579.1" height="500.3"/>
    </clipPath>
  </defs>
  <path class="cls-11" d="M383.6,499.8l13.4,2.6"/>
  <path class="cls-11" d="M70.5,65.6l-10.6-11.4"/>
  <path class="cls-11" d="M276.8,595.3l-5.9-16.5"/>
  <path class="cls-11" d="M218.7,597.1l-5.9,16.5"/>
  <path class="cls-11" d="M663,285.1l-10.6-11.4"/>
  <path class="cls-11" d="M51.7,251.4l-12.8,6.2"/>
  <path class="cls-11" d="M256,114l-3.1-17.9"/>
  <path class="cls-11" d="M588.1,57.5l6-16.5"/>
  <path class="cls-11" d="M665.5,17.5l6-16.5"/>
  <path class="cls-11" d="M36,493.5l6-16.5"/>
  <path class="cls-11" d="M605.7,366.2c0,2.2,1.3,4.1,3,4.1s3-1.8,3-4.1-1.4-4.1-3-4.1-3,1.8-3,4.1Z"/>
  <path class="cls-11" d="M1,401.4c0,2.2,1.3,4.1,3,4.1s3-1.8,3-4.1-1.3-4.1-3-4.1-3,1.8-3,4.1Z"/>
  <path class="cls-11" d="M565.3,561.5c0,2.2,1.4,4.1,3,4.1s3-1.8,3-4.1-1.3-4.1-3-4.1-3,1.8-3,4.1Z"/>
  <path class="cls-11" d="M507.2,630.9c0-2.2,1.3-4.1,3-4.1s3,1.8,3,4.1-1.3,4.1-3,4.1-3-1.8-3-4.1Z"/>
  <path class="cls-11" d="M654.7,110.4c0,2.2,1.3,4.1,3,4.1s3-1.8,3-4.1-1.3-4.1-3-4.1c-1.7,0-3,1.8-3,4.1Z"/>
  <path class="cls-11" d="M90.7,569.7c0,2.2,1.3,4.1,3,4.1s3-1.8,3-4.1-1.3-4.1-3-4.1-3,1.8-3,4.1Z"/>
  <path class="cls-11" d="M32.6,622.7c0-2.2,1.3-4.1,3-4.1s3,1.8,3,4.1-1.3,4.1-3,4.1-3-1.8-3-4.1Z"/>
  <path class="cls-11" d="M344.1,557.5c0,2.2,1.4,4.1,3,4.1s3-1.8,3-4.1-1.4-4.1-3-4.1-3,1.8-3,4.1Z"/>
  <path class="cls-11" d="M286.1,634.9c0-2.2,1.3-4.1,3-4.1s3,1.8,3,4.1-1.3,4.1-3,4.1-3-1.8-3-4.1Z"/>
  <path class="cls-11" d="M503.5,11c0,2.2,1.4,4.1,3,4.1s3-1.8,3-4.1-1.3-4.1-3-4.1c-1.7,0-3,1.8-3,4.1Z"/>
  <path class="cls-11" d="M375.4,61c0,2.2,1.3,4.1,3,4.1s3-1.8,3-4.1-1.3-4.1-3-4.1c-1.7,0-3,1.8-3,4.1Z"/>
  <path class="cls-11" d="M33,140.8c0,2.2,1.3,4.1,3,4.1s3-1.8,3-4.1-1.3-4.1-3-4.1-3,1.8-3,4.1Z"/>
  <path class="cls-11" d="M640.1,573.2l7.5-15.2"/>
  <g class="cls-17">
    <g>
      <path class="cls-3" d="M129.1,498c123.1,59.7,328.6,15.8,405.1-44.8,99.3-78.7,123.3-263.5,20.3-326-58.6-35.5-153.5-27.2-229.6,76-70.7,95.9-122,49.4-201.8,77.5-100.9,35.6-99.3,166.3,5.9,217.2Z"/>
      <path class="cls-6" d="M183.1,195.8h347.7c6.6,0,12,5.4,12,12v230.9c0,6.6-5.4,12-12,12H183.1c-6.6,0-12-5.4-12-12v-230.9c0-6.6,5.4-12,12-12Z"/>
      <path class="cls-5" d="M484.5,188.2c-1.3-12.5,4.7-29.8,13.5-28.3,8.8,1.6-2.2,15.2,5.1,29.2l-18.6-.9Z"/>
      <path class="cls-9" d="M486.9,195.8s14.2-14.1,21.6-39.1c7.4-25.1,40.1-25.9,46.2,5.8,6.1,31.7-22.4,76.1-22.4,76.1l-45.3-42.8Z"/>
      <path class="cls-11" d="M534.2,164.1s1.8,30.1-25,52.7"/>
      <path class="cls-11" d="M575.1,171.7s4.8,16.5-7.5,28.8"/>
      <path class="cls-11" d="M184.3,435.6s3.1,14.8-4.8,27.9"/>
      <path class="cls-11" d="M169.1,435.6s-.4,11.9-6.5,22.1"/>
      <path class="cls-9" d="M316.9,445.4c19.2,24.6,38.7,23.8,62.2,23.7,23.5,0,50.1,6.5,61.9,21.6s47.5,19.3,45.9-17c-1.6-36.3-54.2-68.9-96.5-67.4-42.4,1.4-70.9-5-70.9-5l-2.6,44.1Z"/>
      <path class="cls-11" d="M318.3,421.7c65.9,34,111.9,11.8,140.1,47.4"/>
      <path class="cls-11" d="M503.1,473.2s10.6,7.3,10.2,25.9"/>
      <path class="cls-5" d="M187.4,191.2c-8.3-17.1-6.2-44,5.5-43.8,11.8.3.2,28.9,15.7,41.3l-21.3,2.5Z"/>
      <path class="cls-9" d="M145.8,225s-46.3-84.2-2-97.2c37.3-11,29.4,62.2,69.7,78.4l-67.7,18.8Z"/>
      <path class="cls-11" d="M147.8,150s5.3,37.5,29.6,66.3"/>
      <path class="cls-11" d="M120.9,320.1s22.4,6.3,41.7,2.6"/>
      <path class="cls-11" d="M111.4,201.2s13.1,5.4,19.4,18.9"/>
      <path class="cls-11" d="M231.2,162.2s-6,10.5,0,28.6"/>
      <path class="cls-12" d="M169.9,184.8h347.7c6.6,0,12,5.4,12,12v230.9c0,6.6-5.4,12-12,12H169.9c-6.6,0-12-5.4-12-12v-230.9c0-6.6,5.4-12,12-12Z"/>
      <path class="cls-13" d="M162.1,184.8h347.7c6.6,0,12,5.4,12,12v230.9c0,6.6-5.4,12-12,12H162.1c-6.6,0-12-5.4-12-12v-230.9c0-6.6,5.4-12,12-12Z"/>
      <path class="cls-14" d="M162.1,439.7h347.7c6.6,0,12-5.4,12-12v-12.2H150.1v12.2c0,6.6,5.4,12,12,12Z"/>
      <path class="cls-15" d="M341.9,427.6c0-3.3-2.7-5.9-5.9-5.9s-5.9,2.7-5.9,5.9,2.6,5.9,5.9,5.9,5.9-2.7,5.9-5.9Z"/>
      <path class="cls-14" d="M509.8,184.8H162.1c-6.6,0-12,5.4-12,12h371.7c0-6.6-5.4-12-12-12Z"/>
      <path class="cls-5" d="M309.3,216.8h-134.4v91.3h134.4v-91.3Z"/>
      <path class="cls-7" d="M309.3,304.9h-134.4v3.3h134.4v-3.3Z"/>
      <path class="cls-11" d="M187.4,223.2h-6.2v6.2h6.2v-6.2Z"/>
      <path class="cls-11" d="M199.7,229.3h-6.2"/>
      <path class="cls-11" d="M197.7,282.3l18.1-35.1,17.7,26.6,20.9-21,13.4,15.7,21.2,10.2"/>
      <path class="cls-13" d="M199.9,282.3c0-1.2-1-2.2-2.2-2.2s-2.2,1-2.2,2.2,1,2.2,2.2,2.2,2.2-1,2.2-2.2Z"/>
      <path class="cls-13" d="M256.5,252.9c0-1.2-1-2.2-2.2-2.2s-2.2,1-2.2,2.2,1,2.2,2.2,2.2,2.2-1,2.2-2.2Z"/>
      <path class="cls-13" d="M233.5,276.1c1.2,0,2.2-1,2.2-2.2s-1-2.2-2.2-2.2-2.2,1-2.2,2.2,1,2.2,2.2,2.2Z"/>
      <path class="cls-13" d="M269.9,268.6c0-1.2-1-2.2-2.2-2.2s-2.2,1-2.2,2.2,1,2.2,2.2,2.2,2.2-1,2.2-2.2Z"/>
      <path class="cls-13" d="M218,247.2c0-1.2-1-2.2-2.2-2.2s-2.2,1-2.2,2.2,1,2.2,2.2,2.2,2.2-1,2.2-2.2Z"/>
      <path class="cls-13" d="M291.2,278.7c0-1.2-1-2.2-2.2-2.2s-2.2,1-2.2,2.2,1,2.2,2.2,2.2,2.2-1,2.2-2.2Z"/>
      <path class="cls-11" d="M197.7,293.4h91.3"/>
      <path class="cls-6" d="M302.5,223.2h-35v6.2h35v-6.2Z"/>
      <path class="cls-1" d="M302.5,232.3h-17.9v6.2h17.9v-6.2Z"/>
      <path class="cls-5" d="M309.3,316.4h-134.4v79.1h134.4v-79.1Z"/>
      <path class="cls-7" d="M309.3,392.2h-134.4v3.3h134.4v-3.3Z"/>
      <path class="cls-11" d="M187.4,322.7h-6.2v6.2h6.2v-6.2Z"/>
      <path class="cls-11" d="M199.7,328.9h-6.2"/>
      <path class="cls-1" d="M302.5,337.1h-115.1v4.4h115.1v-4.4Z"/>
      <path class="cls-6" d="M302.5,347.6h-115.1v4.4h115.1v-4.4Z"/>
      <path class="cls-6" d="M258.7,358.1h-71.4v4.4h71.4v-4.4Z"/>
      <path class="cls-1" d="M239,368.6h-51.6v4.4h51.6v-4.4Z"/>
      <path class="cls-1" d="M273.5,368.6h-29v4.4h29v-4.4Z"/>
      <path class="cls-6" d="M218.8,379h-31.4v4.4h31.4v-4.4Z"/>
      <path class="cls-5" d="M497,216.8h-173.6v22.6h173.6v-22.6Z"/>
      <path class="cls-7" d="M497,239.5h-173.6v3.3h173.6v-3.3Z"/>
      <path class="cls-11" d="M329.8,223.2h6.2"/>
      <path class="cls-11" d="M342.1,223.2h6.2"/>
      <path class="cls-11" d="M336,220.8h-6.2v2.4h6.2v-2.4Z"/>
      <path class="cls-1" d="M397.6,228.6h-61.6v4.4h61.6v-4.4Z"/>
      <path class="cls-6" d="M427.3,228.6h-25.9v4.4h25.9v-4.4Z"/>
      <path class="cls-5" d="M497,247.3h-173.6v22.6h173.6v-22.6Z"/>
      <path class="cls-7" d="M497,269.9h-173.6v3.3h173.6v-3.3Z"/>
      <path class="cls-11" d="M329.8,253.6h6.2"/>
      <path class="cls-11" d="M342.1,253.6h6.2"/>
      <path class="cls-11" d="M336,251.3h-6.2v2.4h6.2v-2.4Z"/>
      <path class="cls-1" d="M364.2,259.1h-28.2v4.4h28.2v-4.4Z"/>
      <path class="cls-1" d="M480.9,259.1h-82.3v4.4h82.3v-4.4Z"/>
      <path class="cls-6" d="M394.7,259.1h-25.9v4.4h25.9v-4.4Z"/>
      <path class="cls-5" d="M497,277.8h-173.6v22.6h173.6v-22.6Z"/>
      <path class="cls-7" d="M497,300.4h-173.6v3.3h173.6v-3.3Z"/>
      <path class="cls-11" d="M329.8,284.1h6.2"/>
      <path class="cls-11" d="M342.1,284.1h6.2"/>
      <path class="cls-11" d="M336,281.7h-6.2v2.4h6.2v-2.4Z"/>
      <path class="cls-1" d="M397.6,289.5h-61.6v4.4h61.6v-4.4Z"/>
      <path class="cls-5" d="M497,308.2h-173.6v22.6h173.6v-22.6Z"/>
      <path class="cls-7" d="M497,330.9h-173.6v3.3h173.6v-3.3Z"/>
      <path class="cls-11" d="M329.8,314.6h6.2"/>
      <path class="cls-11" d="M342.1,314.6h6.2"/>
      <path class="cls-11" d="M336,312.2h-6.2v2.4h6.2v-2.4Z"/>
      <path class="cls-1" d="M379.2,320h-43.2v4.4h43.2v-4.4Z"/>
      <path class="cls-6" d="M456.9,320h-72.7v4.4h72.7v-4.4Z"/>
      <path class="cls-6" d="M474.3,320h-12v4.4h12v-4.4Z"/>
      <path class="cls-5" d="M497,343.8h-173.6v51.7h173.6v-51.7Z"/>
      <path class="cls-7" d="M497,392.2h-173.6v3.3h173.6v-3.3Z"/>
      <path class="cls-11" d="M336,350.1h-6.2v6.2h6.2v-6.2Z"/>
      <path class="cls-11" d="M348.3,356.3h-6.2"/>
      <path class="cls-1" d="M381.3,357.2h-24.9v24.9h24.9v-24.9Z"/>
      <path class="cls-11" d="M362.7,375.8l12.4-12.4"/>
      <path class="cls-11" d="M375,375.8l-12.4-12.4"/>
      <path class="cls-1" d="M415.3,357.2h-24.9v24.9h24.9v-24.9Z"/>
      <path class="cls-11" d="M396.7,375.8l12.3-12.4"/>
      <path class="cls-1" d="M449.3,357.2h-24.9v24.9h24.9v-24.9Z"/>
      <path class="cls-11" d="M443,364h-11.2v11.2h11.2v-11.2Z"/>
      <path class="cls-1" d="M483.4,357.2h-24.9v24.9h24.9v-24.9Z"/>
      <g class="cls-16">
        <path class="cls-4" d="M599.7,486h-144.4c-4,0-7.2-3.2-7.2-7.2v-144.5c0-4,3.2-7.2,7.2-7.2h144.4c4,0,7.2,3.2,7.2,7.2v144.5c0,4-3.2,7.2-7.2,7.2Z"/>
        <path class="cls-10" d="M599.7,486h-144.4c-4,0-7.2-3.2-7.2-7.2v-144.5c0-4,3.2-7.2,7.2-7.2h144.4c4,0,7.2,3.2,7.2,7.2v144.5c0,4-3.2,7.2-7.2,7.2Z"/>
      </g>
      <path class="cls-6" d="M592.7,479h-144.4c-4,0-7.2-3.2-7.2-7.2v-144.5c0-4,3.2-7.2,7.2-7.2h144.4c4,0,7.2,3.2,7.2,7.2v144.5c0,4-3.2,7.2-7.2,7.2Z"/>
      <path class="cls-11" d="M592.7,479h-144.4c-4,0-7.2-3.2-7.2-7.2v-144.5c0-4,3.2-7.2,7.2-7.2h144.4c4,0,7.2,3.2,7.2,7.2v144.5c0,4-3.2,7.2-7.2,7.2Z"/>
      <path class="cls-11" d="M450.4,334.4l5.7-5.7"/>
      <path class="cls-11" d="M450.4,328.7l5.7,5.7"/>
      <path class="cls-1" d="M472,373.4c-6.7,0-12.1,5.4-12.1,12.1v2.9h24.1v-2.9c0-6.7-5.4-12.1-12.1-12.1Z"/>
      <path class="cls-1" d="M478.9,364.1c0-3.8-3.1-6.9-6.9-6.9s-6.9,3.1-6.9,6.9,3.1,6.9,6.9,6.9,6.9-3.1,6.9-6.9Z"/>
      <path class="cls-11" d="M488,346h-31.9v42.4h31.9v-42.4Z"/>
      <path class="cls-1" d="M495.8,379.3h35v-6.2h-35v6.2Z"/>
      <path class="cls-1" d="M495.8,388.4h17.9v-6.2h-17.9v6.2Z"/>
      <path class="cls-11" d="M584.9,384.6c0-2.1-1.7-3.8-3.8-3.8s-3.8,1.7-3.8,3.8,1.7,3.8,3.8,3.8,3.8-1.7,3.8-3.8Z"/>
      <path class="cls-5" d="M584.9,398.3h-128.8v25.3h128.8v-25.3Z"/>
      <path class="cls-1" d="M578.1,404h-115.1v4.4h115.1v-4.4Z"/>
      <path class="cls-6" d="M506.4,414.5h-43.5v4.4h43.5v-4.4Z"/>
      <path class="cls-5" d="M584.9,433.5h-128.8v25.3h128.8v-25.3Z"/>
      <path class="cls-1" d="M515.6,439.2h-52.7v4.4h52.7v-4.4Z"/>
      <path class="cls-6" d="M578.1,439.2h-58.6v4.4h58.6v-4.4Z"/>
      <path class="cls-6" d="M529,449.7h-42.1v4.4h42.1v-4.4Z"/>
      <path class="cls-6" d="M483,449.7h-20.1v4.4h20.1v-4.4Z"/>
      <path class="cls-11" d="M446.8,404.1c-15.3,0-14.5-12.8-31.4-12.8s-8.3-3.7-8.3-8.3v-3.3"/>
      <path class="cls-12" d="M452.5,404.1c0-1.6-1.3-2.8-2.8-2.8s-2.8,1.3-2.8,2.8,1.3,2.8,2.8,2.8,2.8-1.3,2.8-2.8Z"/>
      <path class="cls-12" d="M410,376.8c0-1.6-1.3-2.8-2.8-2.8s-2.8,1.3-2.8,2.8,1.3,2.8,2.8,2.8,2.8-1.3,2.8-2.8Z"/>
      <g class="cls-16">
        <path class="cls-4" d="M620.9,309.8h-96.5c-4,0-7.2-3.2-7.2-7.2v-96.6c0-4,3.2-7.2,7.2-7.2h96.5c4,0,7.2,3.2,7.2,7.2v96.6c0,4-3.2,7.2-7.2,7.2Z"/>
        <path class="cls-10" d="M620.9,309.8h-96.5c-4,0-7.2-3.2-7.2-7.2v-96.6c0-4,3.2-7.2,7.2-7.2h96.5c4,0,7.2,3.2,7.2,7.2v96.6c0,4-3.2,7.2-7.2,7.2Z"/>
      </g>
      <path class="cls-6" d="M613.7,303.2h-96.5c-4,0-7.2-3.2-7.2-7.2v-96.6c0-4,3.2-7.2,7.2-7.2h96.5c4,0,7.2,3.2,7.2,7.2v96.6c0,4-3.2,7.2-7.2,7.2Z"/>
      <path class="cls-11" d="M613.9,302.8h-96.5c-4,0-7.2-3.2-7.2-7.2v-96.6c0-4,3.2-7.2,7.2-7.2h96.5c4,0,7.2,3.2,7.2,7.2v96.6c0,4-3.2,7.2-7.2,7.2Z"/>
      <path class="cls-11" d="M519.5,206.1l5.7-5.7"/>
      <path class="cls-11" d="M519.5,200.5l5.7,5.7"/>
      <path class="cls-11" d="M486.2,222.9c16.9,0,16.1,12.8,31.4,12.8"/>
      <path class="cls-12" d="M523.3,235.8c0-1.6-1.3-2.8-2.8-2.8s-2.8,1.3-2.8,2.8,1.3,2.8,2.8,2.8,2.8-1.3,2.8-2.8Z"/>
      <path class="cls-12" d="M486.2,222.9c0-1.6-1.3-2.8-2.8-2.8s-2.8,1.3-2.8,2.8,1.3,2.8,2.8,2.8,2.8-1.3,2.8-2.8Z"/>
      <path class="cls-12" d="M523.3,253.4c0-1.6-1.3-2.8-2.8-2.8s-2.8,1.3-2.8,2.8,1.3,2.8,2.8,2.8,2.8-1.3,2.8-2.8Z"/>
      <path class="cls-12" d="M486.2,253.4c0-1.6-1.3-2.8-2.8-2.8s-2.8,1.3-2.8,2.8,1.3,2.8,2.8,2.8,2.8-1.3,2.8-2.8Z"/>
      <path class="cls-11" d="M486.2,253.4h31.4"/>
      <path class="cls-11" d="M486.2,283.9c16.9,0,16.1-12.8,31.4-12.8"/>
      <path class="cls-12" d="M523.3,271c0,1.6-1.3,2.8-2.8,2.8s-2.8-1.3-2.8-2.8,1.3-2.8,2.8-2.8,2.8,1.3,2.8,2.8Z"/>
      <path class="cls-12" d="M486.2,283.9c0,1.6-1.3,2.8-2.8,2.8s-2.8-1.3-2.8-2.8,1.3-2.8,2.8-2.8c1.6,0,2.8,1.3,2.8,2.8Z"/>
      <g class="cls-16">
        <path class="cls-4" d="M323.8,499.4h-111.6c-4,0-7.2-3.2-7.2-7.2v-53.9c0-4,3.2-7.2,7.2-7.2h111.6c4,0,7.2,3.2,7.2,7.2v53.9c0,4-3.2,7.2-7.2,7.2Z"/>
        <path class="cls-10" d="M323.8,499.4h-111.6c-4,0-7.2-3.2-7.2-7.2v-53.9c0-4,3.2-7.2,7.2-7.2h111.6c4,0,7.2,3.2,7.2,7.2v53.9c0,4-3.2,7.2-7.2,7.2Z"/>
      </g>
      <path class="cls-6" d="M316.8,492.4h-111.6c-4,0-7.2-3.2-7.2-7.2v-53.9c0-4,3.2-7.2,7.2-7.2h111.6c4,0,7.2,3.2,7.2,7.2v53.9c0,4-3.2,7.2-7.2,7.2Z"/>
      <path class="cls-11" d="M316.8,492.4h-111.6c-4,0-7.2-3.2-7.2-7.2v-53.9c0-4,3.2-7.2,7.2-7.2h111.6c4,0,7.2,3.2,7.2,7.2v53.9c0,4-3.2,7.2-7.2,7.2Z"/>
      <path class="cls-11" d="M207.3,438.4l5.7-5.7"/>
      <path class="cls-11" d="M207.3,432.7l5.7,5.7"/>
      <path class="cls-11" d="M261.3,427.8c0-15.3-12.8-14.5-12.8-31.4s-3.7-8.3-8.3-8.3h-3.3"/>
      <path class="cls-12" d="M261.3,433.5c-1.6,0-2.8-1.3-2.8-2.8s1.3-2.8,2.8-2.8,2.8,1.3,2.8,2.8-1.3,2.8-2.8,2.8Z"/>
      <path class="cls-12" d="M234.1,391c-1.6,0-2.8-1.3-2.8-2.8s1.3-2.8,2.8-2.8,2.8,1.3,2.8,2.8-1.3,2.8-2.8,2.8Z"/>
      <g class="cls-16">
        <path class="cls-4" d="M417.8,511.1h-59.1c-4,0-7.2-3.2-7.2-7.2v-32.1c0-4,3.2-7.2,7.2-7.2h59.1c4,0,7.2,3.2,7.2,7.2v32.1c0,4-3.2,7.2-7.2,7.2Z"/>
        <path class="cls-10" d="M417.8,511.1h-59.1c-4,0-7.2-3.2-7.2-7.2v-32.1c0-4,3.2-7.2,7.2-7.2h59.1c4,0,7.2,3.2,7.2,7.2v32.1c0,4-3.2,7.2-7.2,7.2Z"/>
      </g>
      <path class="cls-6" d="M410.8,504.1h-59.1c-4,0-7.2-3.2-7.2-7.2v-32.1c0-4,3.2-7.2,7.2-7.2h59.1c4,0,7.2,3.2,7.2,7.2v32.1c0,4-3.2,7.2-7.2,7.2Z"/>
      <path class="cls-11" d="M410.8,504.1h-59.1c-4,0-7.2-3.2-7.2-7.2v-32.1c0-4,3.2-7.2,7.2-7.2h59.1c4,0,7.2,3.2,7.2,7.2v32.1c0,4-3.2,7.2-7.2,7.2Z"/>
      <path class="cls-11" d="M353.9,471.9l5.7-5.7"/>
      <path class="cls-11" d="M353.9,466.3l5.7,5.7"/>
      <path class="cls-12" d="M371.5,490.7c0-1.5-1.2-2.7-2.7-2.7s-2.7,1.2-2.7,2.7,1.2,2.7,2.7,2.7,2.7-1.2,2.7-2.7Z"/>
      <path class="cls-12" d="M399.3,471c0-1.5-1.2-2.7-2.7-2.7s-2.7,1.2-2.7,2.7,1.2,2.7,2.7,2.7c1.5,0,2.7-1.2,2.7-2.7Z"/>
      <path class="cls-11" d="M368.8,490.7s23.2,6.1,27.8-19.7"/>
      <path class="cls-11" d="M316.9,470.8c16.9,0,16.1,12.8,31.4,12.8"/>
      <path class="cls-12" d="M354.1,483.7c0-1.6-1.3-2.8-2.8-2.8s-2.8,1.3-2.8,2.8,1.3,2.8,2.8,2.8c1.6,0,2.8-1.3,2.8-2.8Z"/>
      <path class="cls-12" d="M316.9,470.8c0-1.6-1.3-2.8-2.8-2.8s-2.8,1.3-2.8,2.8,1.3,2.8,2.8,2.8c1.6,0,2.8-1.3,2.8-2.8Z"/>
      <g class="cls-16">
        <path class="cls-4" d="M162.7,451.9h-54.3c-4.2,0-7.7-3.4-7.7-7.7v-96.5c0-4.2,3.4-7.7,7.7-7.7h54.3c4.2,0,7.7,3.4,7.7,7.7v96.5c0,4.2-3.4,7.7-7.7,7.7Z"/>
        <path class="cls-10" d="M162.7,451.9h-54.3c-4.2,0-7.7-3.4-7.7-7.7v-96.5c0-4.2,3.4-7.7,7.7-7.7h54.3c4.2,0,7.7,3.4,7.7,7.7v96.5c0,4.2-3.4,7.7-7.7,7.7Z"/>
      </g>
      <path class="cls-6" d="M155.7,444.9h-54.3c-4.2,0-7.7-3.4-7.7-7.7v-96.5c0-4.2,3.4-7.7,7.7-7.7h54.3c4.2,0,7.7,3.4,7.7,7.7v96.5c0,4.2-3.4,7.7-7.7,7.7Z"/>
      <path class="cls-11" d="M155.7,444.9h-54.3c-4.2,0-7.7-3.4-7.7-7.7v-96.5c0-4.2,3.4-7.7,7.7-7.7h54.3c4.2,0,7.7,3.4,7.7,7.7v96.5c0,4.2-3.4,7.7-7.7,7.7Z"/>
      <path class="cls-11" d="M103.1,347.5l5.7-5.7"/>
      <path class="cls-11" d="M103.1,341.8l5.7,5.7"/>
      <path class="cls-1" d="M151.9,375c0-.2-.1-.4-.2-.5-.2-.1-.3-.2-.5-.2-14.4.9-21.8-12-21.9-12.2-.3-.5-1-.5-1.3,0,0,.1-7.5,13-21.9,12.2-.2,0-.4,0-.5.2-.2.1-.2.3-.2.5,0,.3-1.3,34.4,23.2,38.3,0,0,0,0,.1,0s0,0,.1,0c24.5-3.8,23.2-37.9,23.2-38.3Z"/>
      <path class="cls-11" d="M187.2,348.9c-16.9,0-16.1,12.8-31.4,12.8"/>
      <path class="cls-12" d="M150.1,361.7c0-1.6,1.3-2.8,2.8-2.8s2.8,1.3,2.8,2.8-1.3,2.8-2.8,2.8-2.8-1.3-2.8-2.8Z"/>
      <path class="cls-12" d="M187.2,348.9c0-1.6,1.3-2.8,2.8-2.8s2.8,1.3,2.8,2.8-1.3,2.8-2.8,2.8-2.8-1.3-2.8-2.8Z"/>
      <g class="cls-16">
        <path class="cls-4" d="M163.2,313.4h-55.2c-4,0-7.2-3.2-7.2-7.2v-80.6c0-4,3.2-7.2,7.2-7.2h55.2c4,0,7.2,3.2,7.2,7.2v80.6c0,4-3.2,7.2-7.2,7.2Z"/>
        <path class="cls-10" d="M163.2,313.4h-55.2c-4,0-7.2-3.2-7.2-7.2v-80.6c0-4,3.2-7.2,7.2-7.2h55.2c4,0,7.2,3.2,7.2,7.2v80.6c0,4-3.2,7.2-7.2,7.2Z"/>
      </g>
      <path class="cls-6" d="M156.2,306.4h-55.2c-4,0-7.2-3.2-7.2-7.2v-80.6c0-4,3.2-7.2,7.2-7.2h55.2c4,0,7.2,3.2,7.2,7.2v80.6c0,4-3.2,7.2-7.2,7.2Z"/>
      <path class="cls-11" d="M156.2,306.4h-55.2c-4,0-7.2-3.2-7.2-7.2v-80.6c0-4,3.2-7.2,7.2-7.2h55.2c4,0,7.2,3.2,7.2,7.2v80.6c0,4-3.2,7.2-7.2,7.2Z"/>
      <path class="cls-11" d="M103.1,225.7l5.7-5.7"/>
      <path class="cls-11" d="M103.1,220l5.7,5.7"/>
      <path class="cls-8" d="M105.6,256.3l11,4.4v3.4l-14.4-6.7v-2.6l14.4-6.6v3.4l-11,4.5ZM122.4,269.8h-2.8l10.7-27.8h2.8l-10.7,27.8ZM148.1,256.2l-11.6-4.6v-3.3l15,6.6v2.6l-15,6.7v-3.4l11.6-4.6Z"/>
      <path class="cls-11" d="M187.2,247.5c-16.9,0-16.1-12.8-31.4-12.8"/>
      <path class="cls-12" d="M150.1,234.7c0,1.6,1.3,2.8,2.8,2.8s2.8-1.3,2.8-2.8-1.3-2.8-2.8-2.8-2.8,1.3-2.8,2.8Z"/>
      <path class="cls-12" d="M187.2,247.5c0,1.6,1.3,2.8,2.8,2.8s2.8-1.3,2.8-2.8-1.3-2.8-2.8-2.8-2.8,1.3-2.8,2.8Z"/>
      <g class="cls-16">
        <path class="cls-4" d="M276.4,233.5h-59c-4,0-7.2-3.2-7.2-7.2v-32.1c0-4,3.2-7.2,7.2-7.2h59.1c4,0,7.2,3.2,7.2,7.2v32.1c0,4-3.2,7.2-7.2,7.2Z"/>
        <path class="cls-10" d="M276.4,233.5h-59c-4,0-7.2-3.2-7.2-7.2v-32.1c0-4,3.2-7.2,7.2-7.2h59.1c4,0,7.2,3.2,7.2,7.2v32.1c0,4-3.2,7.2-7.2,7.2Z"/>
      </g>
      <path class="cls-6" d="M269.4,226.5h-59c-4,0-7.2-3.2-7.2-7.2v-32.1c0-4,3.2-7.2,7.2-7.2h59.1c4,0,7.2,3.2,7.2,7.2v32.1c0,4-3.2,7.2-7.2,7.2Z"/>
      <path class="cls-11" d="M269.4,226.5h-59c-4,0-7.2-3.2-7.2-7.2v-32.1c0-4,3.2-7.2,7.2-7.2h59.1c4,0,7.2,3.2,7.2,7.2v32.1c0,4-3.2,7.2-7.2,7.2Z"/>
      <path class="cls-11" d="M212.5,194.4l5.7-5.7"/>
      <path class="cls-11" d="M212.5,188.7l5.7,5.7"/>
      <g class="cls-16">
        <path class="cls-4" d="M456.2,198.5h-148.2c-4,0-7.2,3.2-7.2,7.2v6.3c0,4,3.2,7.2,7.2,7.2h148.2c4,0,7.2-3.2,7.2-7.2v-6.3c0-4-3.2-7.2-7.2-7.2Z"/>
        <path class="cls-10" d="M456.2,198.5h-148.2c-4,0-7.2,3.2-7.2,7.2v6.3c0,4,3.2,7.2,7.2,7.2h148.2c4,0,7.2-3.2,7.2-7.2v-6.3c0-4-3.2-7.2-7.2-7.2Z"/>
      </g>
      <path class="cls-6" d="M450.6,192.9h-148.2c-4,0-7.2,3.2-7.2,7.2v6.3c0,4,3.2,7.2,7.2,7.2h148.2c4,0,7.2-3.2,7.2-7.2v-6.3c0-4-3.2-7.2-7.2-7.2Z"/>
      <path class="cls-11" d="M450.6,192.9h-148.2c-4,0-7.2,3.2-7.2,7.2v6.3c0,4,3.2,7.2,7.2,7.2h148.2c4,0,7.2-3.2,7.2-7.2v-6.3c0-4-3.2-7.2-7.2-7.2Z"/>
      <path class="cls-5" d="M445.8,199.9h-107.8c-1.9,0-3.4,1.5-3.4,3.4s1.5,3.4,3.4,3.4h107.8c1.9,0,3.4-1.5,3.4-3.4s-1.5-3.4-3.4-3.4Z"/>
      <path class="cls-1" d="M424.7,199.9h-86.8c-1.9,0-3.4,1.5-3.4,3.4s1.5,3.4,3.4,3.4h86.8v-6.8Z"/>
      <path class="cls-11" d="M325.1,200.5h-5.7v5.7h5.7v-5.7Z"/>
      <g class="cls-16">
        <path class="cls-4" d="M456.2,169.7h-148.2c-4,0-7.2,3.2-7.2,7.2v6.3c0,4,3.2,7.2,7.2,7.2h148.2c4,0,7.2-3.2,7.2-7.2v-6.3c0-4-3.2-7.2-7.2-7.2Z"/>
        <path class="cls-10" d="M456.2,169.7h-148.2c-4,0-7.2,3.2-7.2,7.2v6.3c0,4,3.2,7.2,7.2,7.2h148.2c4,0,7.2-3.2,7.2-7.2v-6.3c0-4-3.2-7.2-7.2-7.2Z"/>
      </g>
      <path class="cls-6" d="M450.6,164.1h-148.2c-4,0-7.2,3.2-7.2,7.2v6.3c0,4,3.2,7.2,7.2,7.2h148.2c4,0,7.2-3.2,7.2-7.2v-6.3c0-4-3.2-7.2-7.2-7.2Z"/>
      <path class="cls-11" d="M450.6,164.1h-148.2c-4,0-7.2,3.2-7.2,7.2v6.3c0,4,3.2,7.2,7.2,7.2h148.2c4,0,7.2-3.2,7.2-7.2v-6.3c0-4-3.2-7.2-7.2-7.2Z"/>
      <path class="cls-5" d="M445.8,171.1h-107.8c-1.9,0-3.4,1.5-3.4,3.4s1.5,3.4,3.4,3.4h107.8c1.9,0,3.4-1.5,3.4-3.4s-1.5-3.4-3.4-3.4Z"/>
      <path class="cls-1" d="M362.2,171.1h-24.3c-1.9,0-3.4,1.5-3.4,3.4s1.5,3.4,3.4,3.4h24.3v-6.8Z"/>
      <path class="cls-11" d="M325.1,171.7h-5.7v5.7h5.7v-5.7Z"/>
      <g class="cls-16">
        <path class="cls-4" d="M456.2,227.4h-148.2c-4,0-7.2,3.2-7.2,7.2v6.3c0,4,3.2,7.2,7.2,7.2h148.2c4,0,7.2-3.2,7.2-7.2v-6.3c0-4-3.2-7.2-7.2-7.2Z"/>
        <path class="cls-10" d="M456.2,227.4h-148.2c-4,0-7.2,3.2-7.2,7.2v6.3c0,4,3.2,7.2,7.2,7.2h148.2c4,0,7.2-3.2,7.2-7.2v-6.3c0-4-3.2-7.2-7.2-7.2Z"/>
      </g>
      <path class="cls-6" d="M450.6,221.8h-148.2c-4,0-7.2,3.2-7.2,7.2v6.3c0,4,3.2,7.2,7.2,7.2h148.2c4,0,7.2-3.2,7.2-7.2v-6.3c0-4-3.2-7.2-7.2-7.2Z"/>
      <path class="cls-11" d="M450.6,221.8h-148.2c-4,0-7.2,3.2-7.2,7.2v6.3c0,4,3.2,7.2,7.2,7.2h148.2c4,0,7.2-3.2,7.2-7.2v-6.3c0-4-3.2-7.2-7.2-7.2Z"/>
      <path class="cls-5" d="M445.8,228.8h-107.8c-1.9,0-3.4,1.5-3.4,3.4s1.5,3.4,3.4,3.4h107.8c1.9,0,3.4-1.5,3.4-3.4s-1.5-3.4-3.4-3.4Z"/>
      <path class="cls-1" d="M441.7,228.8h-103.7c-1.9,0-3.4,1.5-3.4,3.4s1.5,3.4,3.4,3.4h103.7v-6.8Z"/>
      <path class="cls-11" d="M325.1,229.4h-5.7v5.7h5.7v-5.7Z"/>
      <path class="cls-11" d="M302,175.5c-16.9,0-16.1,12.8-31.4,12.8"/>
      <path class="cls-12" d="M264.8,188.4c0-1.6,1.3-2.8,2.8-2.8s2.8,1.3,2.8,2.8-1.3,2.8-2.8,2.8-2.8-1.3-2.8-2.8Z"/>
      <path class="cls-12" d="M302,175.5c0-1.6,1.3-2.8,2.8-2.8s2.8,1.3,2.8,2.8-1.3,2.8-2.8,2.8c-1.6,0-2.8-1.3-2.8-2.8Z"/>
      <path class="cls-12" d="M264.8,204c0-1.6,1.3-2.8,2.8-2.8s2.8,1.3,2.8,2.8-1.3,2.8-2.8,2.8-2.8-1.3-2.8-2.8Z"/>
      <path class="cls-12" d="M302,204c0-1.6,1.3-2.8,2.8-2.8s2.8,1.3,2.8,2.8-1.3,2.8-2.8,2.8-2.8-1.3-2.8-2.8Z"/>
      <path class="cls-11" d="M302,204h-31.4"/>
      <path class="cls-11" d="M302,231.5c-16.9,0-16.1-12.8-31.4-12.8"/>
      <path class="cls-12" d="M264.8,218.6c0,1.6,1.3,2.8,2.8,2.8s2.8-1.3,2.8-2.8-1.3-2.8-2.8-2.8-2.8,1.3-2.8,2.8Z"/>
      <path class="cls-12" d="M302,231.5c0,1.6,1.3,2.8,2.8,2.8s2.8-1.3,2.8-2.8-1.3-2.8-2.8-2.8-2.8,1.3-2.8,2.8Z"/>
      <path class="cls-5" d="M612,211.3h-78.7v14.1h78.7v-14.1Z"/>
      <path class="cls-5" d="M612,230.9h-78.7v14.1h78.7v-14.1Z"/>
      <path class="cls-5" d="M612,252.9h-78.7v14.1h78.7v-14.1Z"/>
      <path class="cls-5" d="M612,272.5h-78.7v14.1h78.7v-14.1Z"/>
      <path class="cls-5" d="M313.6,444.4h-104.5v19.5h104.5v-19.5Z"/>
      <path class="cls-1" d="M308,448.8h-93.5v3.4h93.5v-3.4Z"/>
      <path class="cls-6" d="M249.9,456.8h-35.3v3.4h35.3v-3.4Z"/>
    </g>
  </g>
</svg>