<?xml version="1.0" encoding="UTF-8"?>
<svg id="Layer_2" data-name="Layer 2" xmlns="http://www.w3.org/2000/svg" viewBox="0 0 32 32">
  <defs>
    <style>
      .cls-1 {
        fill: #59aa47;
        stroke-width: 0px;
      }
    </style>
  </defs>
  <g id="Layer_1-2" data-name="Layer 1">
    <g>
      <path class="cls-1" d="M25.03,15.09c.56-1.24.88-2.62.88-4.07,0-5.46-4.43-9.89-9.9-9.89S6.1,5.55,6.1,11.01c0,1.45.31,2.83.88,4.07H0c.02-.33.05-.65.08-.97C1.02,6.17,7.79,0,16,0s15.53,6.68,16,15.09h-6.97Z"/>
      <g>
        <path class="cls-1" d="M16.03,30.12c0,.64-.04,1.26-.11,1.88-.14,0-.29,0-.43,0,.04-.37.07-.75.07-1.14,0-5.46-4.43-9.89-9.9-9.89-1.62,0-3.14.39-4.49,1.07-.65-1.59-1.06-3.32-1.16-5.12h9.05c1.38.94,2.61,2.1,3.63,3.42,2.1,2.7,3.35,6.1,3.35,9.78Z"/>
        <path class="cls-1" d="M15.08,31.62c0,.12,0,.24,0,.35-.19,0-.39-.02-.58-.04.02-.22.04-.44.04-.67,0-3.38-2.74-6.11-6.12-6.11-1.63,0-3.12.64-4.21,1.68-1.17-1.27-2.14-2.73-2.85-4.33h0c1.18-.49,2.47-.77,3.83-.77,5.47,0,9.91,4.43,9.91,9.89Z"/>
        <path class="cls-1" d="M14.15,31.89c-.11-.01-.23-.03-.34-.04-.33-1.75-1.87-3.07-3.72-3.07-.92,0-1.77.33-2.43.88h0c-1.17-.71-2.24-1.57-3.18-2.55,1-.71,2.23-1.13,3.55-1.13,3.31,0,6.01,2.63,6.12,5.91Z"/>
      </g>
      <g>
        <path class="cls-1" d="M15.97,30.12c0,.64.04,1.26.11,1.88.14,0,.29,0,.43,0-.04-.37-.07-.75-.07-1.14,0-5.46,4.43-9.89,9.9-9.89,1.62,0,3.14.39,4.49,1.07.65-1.59,1.06-3.32,1.16-5.12h-9.05c-1.38.94-2.61,2.1-3.63,3.42-2.1,2.7-3.35,6.1-3.35,9.78Z"/>
        <path class="cls-1" d="M16.92,31.62c0,.12,0,.24,0,.35.19,0,.39-.02.58-.04-.02-.22-.04-.44-.04-.67,0-3.38,2.74-6.11,6.12-6.11,1.63,0,3.12.64,4.21,1.68,1.17-1.27,2.14-2.73,2.85-4.33h0c-1.18-.49-2.47-.77-3.83-.77-5.47,0-9.91,4.43-9.91,9.89Z"/>
        <path class="cls-1" d="M17.85,31.89c.11-.01.23-.03.34-.04.33-1.75,1.87-3.07,3.72-3.07.92,0,1.77.33,2.43.88h0c1.17-.71,2.24-1.57,3.18-2.55-1-.71-2.23-1.13-3.55-1.13-3.31,0-6.01,2.63-6.12,5.91Z"/>
      </g>
      <path class="cls-1" d="M16.92,6.4v13.62c-.49,1.34-.8,2.77-.9,4.25h-.03c-.11-1.48-.41-2.9-.9-4.24v-4.94h0V6.37c.32.13.64.29.95.45.29-.16.58-.3.89-.43Z"/>
      <path class="cls-1" d="M18.72,4.93c-.27.06-.53.13-.79.21-.34.1-.68.23-1.01.37-.3.13-.6.27-.89.43-.31-.17-.62-.32-.95-.45-.31-.13-.63-.24-.95-.34-.26-.08-.52-.15-.79-.21,1-.82,1.91-1.75,2.69-2.79.78,1.03,1.69,1.97,2.69,2.79Z"/>
    </g>
  </g>
</svg>