<?xml version="1.0" encoding="utf-8"?>
<!-- Generator: Adobe Illustrator 25.3.1, SVG Export Plug-In . SVG Version: 6.00 Build 0)  -->
<svg version="1.1" id="Layer_1" xmlns="http://www.w3.org/2000/svg" xmlns:xlink="http://www.w3.org/1999/xlink" x="0px" y="0px"
	 viewBox="0 0 566.93 566.93" style="enable-background:new 0 0 566.93 566.93;" xml:space="preserve">
<style type="text/css">
	.st0{fill:#383338;}
	.st1{fill:#59AA47;}
</style>
<g>
	<path class="st0" d="M174.32,462.6h-3.01l-6.82-10.3v10.3h-3.01v-15.03h3.01l6.82,10.32v-10.32h3.01V462.6z"/>
	<path class="st0" d="M182.44,447.59v15.01h-3.01v-15.01H182.44z"/>
	<path class="st0" d="M190.57,460.22h4.95v2.39h-7.96v-15.01h3.01V460.22z"/>
	<path class="st0" d="M208.79,459.74h-5.98l-0.99,2.86h-3.16l5.4-15.03h3.5l5.4,15.03h-3.18L208.79,459.74z M207.98,457.34
		l-2.17-6.28l-2.17,6.28H207.98z"/>
	<path class="st0" d="M220.15,447.59v15.01h-3.01v-15.01H220.15z"/>
	<path class="st0" d="M242.75,447.59v2.43h-4v12.58h-3.01v-12.58h-4v-2.43H242.75z"/>
	<path class="st0" d="M250.06,447.59v9.29c0,1.02,0.26,1.8,0.8,2.33c0.53,0.54,1.28,0.81,2.24,0.81c0.98,0,1.73-0.27,2.26-0.81
		c0.53-0.54,0.8-1.32,0.8-2.33v-9.29h3.03v9.27c0,1.28-0.28,2.35-0.83,3.24s-1.29,1.55-2.21,1.99c-0.92,0.45-1.95,0.67-3.09,0.67
		c-1.12,0-2.13-0.22-3.04-0.67c-0.91-0.44-1.63-1.11-2.16-1.99s-0.79-1.96-0.79-3.24v-9.27H250.06z"/>
	<path class="st0" d="M272.71,462.6l-5.46-6.69v6.69h-3.01v-15.01h3.01v6.73l5.46-6.73h3.63l-6.19,7.44l6.37,7.57H272.71z"/>
	<path class="st0" d="M289.85,459.74h-5.98l-0.99,2.86h-3.16l5.4-15.03h3.5l5.4,15.03h-3.18L289.85,459.74z M289.04,457.34
		l-2.17-6.28l-2.17,6.28H289.04z"/>
	<path class="st0" d="M305.94,462.6l-3.31-5.85h-1.42v5.85h-3.01v-15.01h5.63c1.16,0,2.15,0.21,2.97,0.61
		c0.82,0.41,1.43,0.96,1.84,1.66c0.41,0.7,0.61,1.47,0.61,2.33c0,0.99-0.29,1.88-0.86,2.68c-0.57,0.8-1.43,1.34-2.56,1.65l3.59,6.09
		H305.94z M301.21,454.5h2.52c0.82,0,1.43-0.2,1.83-0.59c0.4-0.39,0.6-0.94,0.6-1.64c0-0.69-0.2-1.22-0.6-1.6s-1.01-0.57-1.83-0.57
		h-2.52V454.5z"/>
	<path class="st0" d="M331.78,454.5c-0.38,0.7-0.98,1.27-1.79,1.7c-0.81,0.43-1.83,0.65-3.06,0.65h-2.52v5.76h-3.01v-15.01h5.53
		c1.16,0,2.15,0.2,2.97,0.6s1.43,0.95,1.84,1.66c0.41,0.7,0.61,1.5,0.61,2.39C332.35,453.04,332.16,453.79,331.78,454.5z
		 M328.65,453.84c0.4-0.38,0.6-0.91,0.6-1.6c0-1.46-0.82-2.19-2.45-2.19h-2.39v4.37h2.39C327.63,454.41,328.25,454.22,328.65,453.84
		z"/>
	<path class="st0" d="M339.64,450.02v3.76h5.05v2.39h-5.05v3.98h5.7v2.45h-8.71v-15.03h8.71v2.45H339.64z"/>
	<path class="st0" d="M360.44,447.59v2.43h-4v12.58h-3.01v-12.58h-4v-2.43H360.44z"/>
	<path class="st0" d="M373.99,459.74h-5.98l-0.99,2.86h-3.16l5.4-15.03h3.5l5.4,15.03h-3.18L373.99,459.74z M373.17,457.34
		l-2.17-6.28l-2.17,6.28H373.17z"/>
	<path class="st0" d="M395.17,462.6h-3.01l-6.82-10.3v10.3h-3.01v-15.03h3.01l6.82,10.32v-10.32h3.01V462.6z"/>
	<path class="st0" d="M403.3,447.59v15.01h-3.01v-15.01H403.3z"/>
</g>
<g>
	<path class="st0" d="M155.43,415.56c-0.83,1.5-2.1,2.7-3.82,3.62c-1.72,0.92-3.85,1.38-6.4,1.38h-4.71v11.2h-7.6v-31.2h12.31
		c2.49,0,4.59,0.43,6.31,1.29s3.01,2.04,3.87,3.56c0.86,1.51,1.29,3.24,1.29,5.2C156.68,412.41,156.26,414.06,155.43,415.56z
		 M147.88,413.49c0.71-0.68,1.07-1.64,1.07-2.89c0-1.24-0.36-2.21-1.07-2.89s-1.79-1.02-3.24-1.02h-4.13v7.82h4.13
		C146.09,414.51,147.17,414.17,147.88,413.49z"/>
	<path class="st0" d="M168.24,406.65v6.31h10.18v5.87h-10.18v6.85h11.51v6.09h-19.11v-31.2h19.11v6.09H168.24z"/>
	<path class="st0" d="M212.59,431.76h-7.6l-12.71-19.25v19.25h-7.6v-31.2h7.6l12.71,19.33v-19.33h7.6V431.76z"/>
	<path class="st0" d="M238.82,410.43c-0.56-1.04-1.37-1.83-2.42-2.38c-1.05-0.55-2.29-0.82-3.71-0.82c-2.46,0-4.43,0.81-5.91,2.42
		s-2.22,3.77-2.22,6.47c0,2.87,0.78,5.12,2.33,6.73c1.56,1.62,3.7,2.42,6.42,2.42c1.87,0,3.44-0.47,4.73-1.42
		c1.29-0.95,2.23-2.31,2.82-4.09h-9.64v-5.6h16.53v7.07c-0.56,1.9-1.52,3.66-2.87,5.29c-1.35,1.63-3.06,2.95-5.13,3.96
		c-2.07,1.01-4.42,1.51-7.02,1.51c-3.08,0-5.83-0.67-8.25-2.02s-4.3-3.22-5.64-5.62c-1.35-2.4-2.02-5.14-2.02-8.22
		s0.67-5.83,2.02-8.25c1.35-2.42,3.22-4.3,5.62-5.64c2.4-1.35,5.14-2.02,8.22-2.02c3.73,0,6.88,0.9,9.44,2.71
		c2.56,1.81,4.26,4.31,5.09,7.51H238.82z"/>
	<path class="st0" d="M258.66,430.03c-2.44-1.36-4.39-3.27-5.82-5.71c-1.44-2.44-2.16-5.19-2.16-8.25c0-3.05,0.72-5.79,2.16-8.22
		c1.44-2.43,3.38-4.33,5.82-5.69c2.44-1.36,5.13-2.04,8.07-2.04s5.62,0.68,8.07,2.04c2.44,1.36,4.37,3.26,5.78,5.69
		c1.41,2.43,2.11,5.17,2.11,8.22c0,3.05-0.71,5.8-2.13,8.25c-1.42,2.45-3.35,4.35-5.78,5.71c-2.43,1.36-5.11,2.04-8.04,2.04
		S261.11,431.39,258.66,430.03z M272.71,422.65c1.5-1.66,2.25-3.85,2.25-6.58c0-2.75-0.75-4.96-2.25-6.6
		c-1.5-1.65-3.49-2.47-5.98-2.47c-2.52,0-4.53,0.82-6.02,2.45s-2.24,3.84-2.24,6.62c0,2.76,0.75,4.96,2.24,6.6s3.5,2.47,6.02,2.47
		C269.22,425.14,271.21,424.31,272.71,422.65z"/>
	<path class="st0" d="M294.51,425.89h9.96v5.87h-17.56v-31.2h7.6V425.89z"/>
	<path class="st0" d="M327.53,426.25h-11.65l-1.87,5.51h-7.96l11.29-31.2h8.8l11.29,31.2h-8.04L327.53,426.25z M325.58,420.38
		l-3.87-11.42l-3.82,11.42H325.58z"/>
	<path class="st0" d="M367.89,400.56v31.2h-7.6v-12.85h-11.82v12.85h-7.6v-31.2h7.6v12.22h11.82v-12.22H367.89z"/>
	<path class="st0" d="M392.78,426.25h-11.65l-1.87,5.51h-7.96l11.29-31.2h8.8l11.29,31.2h-8.04L392.78,426.25z M390.83,420.38
		l-3.87-11.42l-3.82,11.42H390.83z"/>
	<path class="st0" d="M434.03,431.76h-7.6l-12.71-19.25v19.25h-7.6v-31.2h7.6l12.71,19.33v-19.33h7.6V431.76z"/>
</g>
<g>
	<path class="st1" d="M359.03,218.04c4.7-10.4,7.33-21.96,7.33-34.14c0-45.78-37.11-82.89-82.89-82.89s-82.89,37.11-82.89,82.89
		c0,12.18,2.62,23.74,7.33,34.14h-58.32c0.14-2.73,0.38-5.43,0.69-8.11c7.79-66.65,64.46-118.36,133.19-118.36
		c71.5,0,129.95,55.96,133.89,126.47H359.03z"/>
	<g>
		<path class="st1" d="M283.71,344.04c0,5.34-0.31,10.6-0.93,15.78c-1.2,0-2.42-0.01-3.61-0.05c0.37-3.14,0.55-6.31,0.55-9.54
			c0-45.78-37.11-82.89-82.89-82.89c-13.53,0-26.31,3.24-37.6,8.99c-5.46-13.37-8.83-27.84-9.68-42.96h75.78
			c11.56,7.91,21.82,17.6,30.38,28.66C273.26,284.69,283.71,313.14,283.71,344.04z"/>
		<path class="st1" d="M275.79,356.64c0,0.99-0.01,1.99-0.05,2.96c-1.62-0.08-3.23-0.2-4.83-0.37c0.2-1.84,0.31-3.72,0.31-5.61
			c0-28.31-22.94-51.24-51.24-51.24c-13.67,0-26.08,5.35-35.27,14.06c-9.8-10.65-17.9-22.89-23.85-36.29v-0.01
			c9.86-4.12,20.67-6.41,32.03-6.41C238.68,273.74,275.79,310.85,275.79,356.64z"/>
		<path class="st1" d="M267.96,358.93c-0.96-0.09-1.92-0.22-2.88-0.35c-2.77-14.65-15.64-25.73-31.11-25.73
			c-7.73,0-14.83,2.77-20.33,7.4c0,0,0,0-0.01,0c-9.77-5.98-18.71-13.17-26.62-21.36c8.4-5.99,18.66-9.5,29.74-9.5
			C244.48,309.38,267.07,331.42,267.96,358.93z"/>
	</g>
	<g>
		<path class="st1" d="M283.21,344.04c0,5.34,0.31,10.6,0.93,15.78c1.2,0,2.42-0.01,3.61-0.05c-0.37-3.14-0.55-6.31-0.55-9.54
			c0-45.78,37.11-82.89,82.89-82.89c13.53,0,26.31,3.24,37.6,8.99c5.46-13.37,8.83-27.84,9.68-42.96h-75.78
			c-11.56,7.91-21.82,17.6-30.38,28.66C293.66,284.69,283.21,313.14,283.21,344.04z"/>
		<path class="st1" d="M291.14,356.64c0,0.99,0.01,1.99,0.05,2.96c1.62-0.08,3.23-0.2,4.83-0.37c-0.2-1.84-0.31-3.72-0.31-5.61
			c0-28.31,22.94-51.24,51.24-51.24c13.67,0,26.08,5.35,35.27,14.06c9.8-10.65,17.9-22.89,23.85-36.29v-0.01
			c-9.86-4.12-20.67-6.41-32.03-6.41C328.25,273.74,291.14,310.85,291.14,356.64z"/>
		<path class="st1" d="M298.96,358.93c0.96-0.09,1.92-0.22,2.88-0.35c2.77-14.65,15.64-25.73,31.11-25.73
			c7.73,0,14.83,2.77,20.33,7.4c0,0,0,0,0.01,0c9.77-5.98,18.71-13.17,26.62-21.36c-8.4-5.99-18.66-9.5-29.74-9.5
			C322.45,309.38,299.86,331.42,298.96,358.93z"/>
	</g>
	<path class="st1" d="M291.14,145.23v114.21c-4.07,11.25-6.66,23.2-7.54,35.62h-0.24c-0.89-12.41-3.47-24.35-7.53-35.58v-41.44
		h-0.01v-73.03c2.72,1.12,5.35,2.41,7.91,3.81C286.12,147.5,288.59,146.3,291.14,145.23z"/>
	<path class="st1" d="M306.24,132.91c-2.26,0.47-4.47,1.05-6.65,1.72c-2.88,0.87-5.71,1.89-8.45,3.08c-2.54,1.07-5.02,2.27-7.42,3.6
		c-2.56-1.41-5.19-2.69-7.91-3.81c-2.6-1.1-5.25-2.05-7.96-2.87c-2.18-0.66-4.39-1.24-6.65-1.72c8.41-6.85,15.98-14.71,22.52-23.37
		C290.26,118.2,297.83,126.06,306.24,132.91z"/>
</g>
</svg>
